<svg width="19" height="17" viewBox="0 0 19 17" fill="none" xmlns="http://www.w3.org/2000/svg">
<path d="M13.7756 0.842285H4.83699C2.1554 0.842285 0.367676 2.18308 0.367676 5.3116V11.5686C0.367676 14.6972 2.1554 16.038 4.83699 16.038H13.7756C16.4572 16.038 18.2449 14.6972 18.2449 11.5686V5.3116C18.2449 2.18308 16.4572 0.842285 13.7756 0.842285ZM14.1957 6.28592L11.398 8.52057C10.808 8.99432 10.0572 9.22673 9.30631 9.22673C8.55547 9.22673 7.79568 8.99432 7.21467 8.52057L4.41688 6.28592C4.13084 6.05351 4.08615 5.62446 4.30961 5.33842C4.54202 5.05238 4.96214 4.99875 5.24817 5.23116L8.04596 7.46581C8.7253 8.01107 9.87838 8.01107 10.5577 7.46581L13.3555 5.23116C13.6416 4.99875 14.0706 5.04344 14.2941 5.33842C14.5265 5.62446 14.4818 6.05351 14.1957 6.28592Z" fill="#D9D9D9"/>
</svg>
