<svg width="24" height="25" viewBox="0 0 24 25" fill="none" xmlns="http://www.w3.org/2000/svg">
<path d="M21.2498 10.0911C18.9398 6.46109 15.5598 4.37109 11.9998 4.37109C10.2198 4.37109 8.48976 4.89109 6.90976 5.86109C5.32976 6.84109 3.90976 8.27109 2.74976 10.0911C1.74976 11.6611 1.74976 14.2111 2.74976 15.7811C5.05976 19.4211 8.43976 21.5011 11.9998 21.5011C13.7798 21.5011 15.5098 20.9811 17.0898 20.0111C18.6698 19.0311 20.0898 17.6011 21.2498 15.7811C22.2498 14.2211 22.2498 11.6611 21.2498 10.0911ZM11.9998 16.9811C9.75976 16.9811 7.95976 15.1711 7.95976 12.9411C7.95976 10.7111 9.75976 8.90109 11.9998 8.90109C14.2398 8.90109 16.0398 10.7111 16.0398 12.9411C16.0398 15.1711 14.2398 16.9811 11.9998 16.9811Z" fill="#D9D9D9"/>
<path d="M11.9997 10.0811C10.4297 10.0811 9.14966 11.3611 9.14966 12.9411C9.14966 14.5111 10.4297 15.7911 11.9997 15.7911C13.5697 15.7911 14.8597 14.5111 14.8597 12.9411C14.8597 11.3711 13.5697 10.0811 11.9997 10.0811Z" fill="#D9D9D9"/>
</svg>
