<svg width="19" height="19" viewBox="0 0 19 19" fill="none" xmlns="http://www.w3.org/2000/svg">
<path d="M16.8028 2.88832C14.157 0.25142 9.86645 0.25142 7.23849 2.88832C5.38819 4.72074 4.83399 7.35764 5.54909 9.68168L1.34793 13.8828C1.05295 14.1868 0.847363 14.7856 0.909933 15.2147L1.17809 17.1633C1.27642 17.8069 1.87531 18.4147 2.51889 18.5041L4.46751 18.7723C4.89657 18.8348 5.49545 18.6382 5.79937 18.3253L6.53234 17.5924C6.71111 17.4225 6.71111 17.1365 6.53234 16.9577L4.79824 15.2236C4.53902 14.9644 4.53902 14.5354 4.79824 14.2761C5.05746 14.0169 5.48652 14.0169 5.74574 14.2761L7.48877 16.0192C7.6586 16.189 7.94464 16.189 8.11447 16.0192L10.0095 14.1331C12.3246 14.8572 14.9615 14.294 16.8028 12.4616C19.4397 9.8247 19.4397 5.52522 16.8028 2.88832ZM12.0743 9.84258C10.8408 9.84258 9.83963 8.84145 9.83963 7.60792C9.83963 6.37439 10.8408 5.37326 12.0743 5.37326C13.3078 5.37326 14.3089 6.37439 14.3089 7.60792C14.3089 8.84145 13.3078 9.84258 12.0743 9.84258Z" fill="#D9D9D9"/>
</svg>
