<svg width="70" height="79" viewBox="0 0 70 79" fill="none" xmlns="http://www.w3.org/2000/svg">
<path fill-rule="evenodd" clip-rule="evenodd" d="M19.9655 17.8264C21.3754 16.7801 23.033 16.2217 24.7286 16.2217C25.8173 16.2217 26.6998 17.2018 26.6998 18.4109C26.6998 19.62 25.8173 20.6002 24.7286 20.6002C23.8127 20.6002 22.9173 20.9018 22.1558 21.467C21.3942 22.0322 20.8007 22.8354 20.4502 23.7752C20.0997 24.7151 20.0079 25.7492 20.1866 26.7469C20.3653 27.7446 20.8064 28.6611 21.454 29.3804C22.1017 30.0997 22.9268 30.5895 23.8252 30.788C24.7235 30.9864 25.6546 30.8846 26.5008 30.4953C27.347 30.106 28.0703 29.4468 28.5791 28.601C29.088 27.7551 29.3596 26.7607 29.3596 25.7435C29.3596 24.5344 30.2421 23.5542 31.3308 23.5542C32.4194 23.5542 33.302 24.5344 33.302 25.7435C33.302 27.6267 32.7991 29.4677 31.8571 31.0335C30.915 32.5994 29.5761 33.8198 28.0095 34.5405C26.4429 35.2612 24.7191 35.4498 23.056 35.0824C21.393 34.715 19.8654 33.8081 18.6664 32.4764C17.4673 31.1448 16.6508 29.4482 16.32 27.6011C15.9892 25.7541 16.159 23.8395 16.8079 22.0997C17.4568 20.3598 18.5556 18.8727 19.9655 17.8264Z" fill="#E53935" stroke="#E53935" stroke-linecap="round" stroke-linejoin="round"/>
<path fill-rule="evenodd" clip-rule="evenodd" d="M67.557 28.918C68.63 28.918 69.4998 29.9041 69.4998 31.1206V49.5643C69.4998 58.9993 67.8566 66.1769 63.6774 70.9417C59.4954 75.7096 53.1928 77.585 44.9115 77.585H25.5014C17.2227 77.585 10.9202 75.7103 6.73769 70.943C2.55769 66.1787 0.913086 59.0011 0.913086 49.5643V42.1486C0.913086 40.9321 1.78292 39.946 2.85591 39.946C3.9289 39.946 4.79873 40.9321 4.79873 42.1486V49.5643C4.79873 58.571 6.39215 64.3025 9.49256 67.8363C12.5904 71.3672 17.6107 73.1797 25.5014 73.1797H44.9115C52.8048 73.1797 57.825 71.3665 60.9221 67.8354C64.022 64.3013 65.6142 58.5699 65.6142 49.5643V31.1206C65.6142 29.9041 66.484 28.918 67.557 28.918Z" fill="#E53935" stroke="#E53935" stroke-linecap="round" stroke-linejoin="round"/>
<path fill-rule="evenodd" clip-rule="evenodd" d="M6.81854 7.91731C11.0567 3.2473 17.4431 1.41016 25.838 1.41016H38.9627C40.0448 1.41016 40.922 2.37674 40.922 3.56909C40.922 4.76144 40.0448 5.72802 38.9627 5.72802H25.838C17.8297 5.72802 12.7332 7.50637 9.58941 10.9705C6.4456 14.4346 4.83169 20.0504 4.83169 28.8747C4.83169 30.067 3.95448 31.0336 2.87239 31.0336C1.7903 31.0336 0.913086 30.067 0.913086 28.8747C0.913086 19.6244 2.58036 12.5873 6.81854 7.91731Z" fill="#E53935" stroke="#E53935" stroke-linecap="round" stroke-linejoin="round"/>
<path fill-rule="evenodd" clip-rule="evenodd" d="M44.7324 14.1062C44.7324 12.9376 45.6455 11.9902 46.7718 11.9902H65.5553C66.6816 11.9902 67.5947 12.9376 67.5947 14.1062C67.5947 15.2748 66.6816 16.2222 65.5553 16.2222H46.7718C45.6455 16.2222 44.7324 15.2748 44.7324 14.1062Z" fill="#E53935" stroke="#E53935" stroke-linecap="round"/>
<path fill-rule="evenodd" clip-rule="evenodd" d="M56.164 1.41016C57.2167 1.41016 58.0701 2.42421 58.0701 3.6751V24.5367C58.0701 25.7876 57.2167 26.8017 56.164 26.8017C55.1112 26.8017 54.2578 25.7876 54.2578 24.5367V3.6751C54.2578 2.42421 55.1112 1.41016 56.164 1.41016Z" fill="#E53935" stroke="#E53935" stroke-linecap="round"/>
<path fill-rule="evenodd" clip-rule="evenodd" d="M54.352 43.0414L40.8684 56.0048L40.8326 56.0384C39.1933 57.5394 37.1365 58.3601 35.0137 58.3601C32.891 58.3601 30.8341 57.5394 29.1949 56.0384C29.1772 56.0222 29.1598 56.0057 29.1427 55.9888L28.1018 54.9653C27.2302 54.1842 26.1596 53.7278 25.0415 53.6615C23.9166 53.5947 22.8017 53.9262 21.8566 54.6082L5.86036 66.6326C4.96748 67.3038 3.7548 67.0423 3.15177 66.0485C2.54873 65.0547 2.78369 63.705 3.67657 63.0338L19.7129 50.9793C21.3539 49.788 23.2929 49.2088 25.2493 49.325C27.2058 49.4411 29.0783 50.2468 30.5962 51.6255C30.6159 51.6434 30.6353 51.6618 30.6543 51.6805L31.6983 52.7071C32.6352 53.5545 33.8059 54.0174 35.0137 54.0174C36.2249 54.0174 37.3988 53.5519 38.3369 52.7L51.8206 39.7367L51.8564 39.7031C53.4957 38.202 55.5525 37.3813 57.6752 37.3813C59.798 37.3813 61.8548 38.202 63.4941 39.7031L63.53 39.7367L68.8234 44.8264C69.6387 45.6103 69.7287 46.9815 69.0243 47.8889C68.32 48.7964 67.088 48.8965 66.2727 48.1126L60.9984 43.0414C60.0602 42.1895 58.8864 41.724 57.6752 41.724C56.464 41.724 55.2902 42.1895 54.352 43.0414Z" fill="#E53935" stroke="#E53935" stroke-linecap="round" stroke-linejoin="round"/>
</svg>
