<svg width="18" height="21" viewBox="0 0 18 21" fill="none" xmlns="http://www.w3.org/2000/svg">
<path d="M10.4771 2.02639H6.86424C6.81664 2.02585 6.76942 2.03482 6.72534 2.05278C6.68126 2.07075 6.64122 2.09734 6.60756 2.131C6.5739 2.16465 6.54731 2.2047 6.52934 2.24878C6.51138 2.29286 6.50241 2.34008 6.50295 2.38768V3.47154H10.8384V2.38768C10.8389 2.34008 10.83 2.29286 10.812 2.24878C10.794 2.2047 10.7674 2.16465 10.7338 2.131C10.7001 2.09734 10.6601 2.07075 10.616 2.05278C10.5719 2.03482 10.5247 2.02585 10.4771 2.02639Z" fill="#E53935"/>
<path d="M10.2965 2.02637H7.0449C6.99699 2.02637 6.95104 2.0454 6.91717 2.07928C6.88329 2.11315 6.86426 2.1591 6.86426 2.20701V3.47151H10.4771V2.20701C10.4771 2.1591 10.4581 2.11315 10.4242 2.07928C10.3903 2.0454 10.3444 2.02637 10.2965 2.02637Z" fill="#E53935"/>
<path d="M17.3214 3.47135H12.2837V1.30363C12.2837 1.11199 12.2076 0.9282 12.0721 0.792691C11.9366 0.657183 11.7528 0.581055 11.5612 0.581055H5.78059C5.58895 0.581055 5.40516 0.657183 5.26965 0.792691C5.13414 0.9282 5.05801 1.11199 5.05801 1.30363V3.47135H0.0203222L0 5.27778H1.49031L2.39759 19.4583C2.42055 19.825 2.58234 20.1692 2.85003 20.4209C3.11773 20.6725 3.47124 20.8128 3.83867 20.8131H13.5031C13.8703 20.8131 14.2237 20.6732 14.4916 20.422C14.7594 20.1708 14.9216 19.827 14.9451 19.4605L15.8515 5.27778H17.3418L17.3214 3.47135ZM5.05801 17.9228L4.65157 6.36164H6.14187L6.54832 17.9228H5.05801ZM9.39345 17.9228H7.94831V6.36164H9.39345V17.9228ZM10.4773 3.47135H6.86445V2.20684C6.86445 2.15894 6.88348 2.11299 6.91736 2.07911C6.95123 2.04523 6.99718 2.0262 7.04509 2.0262H10.2967C10.3446 2.0262 10.3905 2.04523 10.4244 2.07911C10.4583 2.11299 10.4773 2.15894 10.4773 2.20684V3.47135ZM12.2837 17.9228H10.7934L11.1999 6.36164H12.6902L12.2837 17.9228Z" fill="#E53935"/>
</svg>
