<svg width="24" height="25" viewBox="0 0 24 25" fill="none" xmlns="http://www.w3.org/2000/svg">
<path d="M12.8683 15.8185L7.55755 17.9632C7.45543 18.0143 7.3533 18.0143 7.25117 18.0143H7.2001H2.60429V16.993H6.4852V16.942L7.71075 13.8781H2.60429V12.8568H8.17033L8.68097 11.6312L10.5704 9.74185H2.60429V8.72056H11.5917L14.9109 5.40137H0.919162C0.408516 5.40137 0 5.80988 0 6.32053V23.5803C0 24.091 0.408516 24.4995 0.919162 24.4995H18.179C18.6896 24.4995 19.0981 24.091 19.0981 23.5803V9.58866L12.8683 15.8185Z" fill="#D9D9D9"/>
<path d="M23.8472 2.59365L21.9068 0.653194C21.7025 0.448935 21.294 0.448935 21.0897 0.653194L9.54914 12.1938L7.71082 16.7896L12.3066 14.9513L23.8472 3.41068C23.9493 3.30855 24.0004 3.15536 24.0004 3.00216C24.0004 2.84897 23.9493 2.69578 23.8472 2.59365Z" fill="#D9D9D9"/>
</svg>
