<svg width="24" height="25" viewBox="0 0 24 25" fill="none" xmlns="http://www.w3.org/2000/svg">
<path d="M16.6909 5.62757C17.3454 5.62757 17.8545 5.11847 17.8545 4.46393C17.8545 3.80938 17.3454 3.30029 16.6909 3.30029C16.0363 3.30029 15.5272 3.80938 15.5272 4.46393C15.5272 5.11847 16.0727 5.62757 16.6909 5.62757Z" fill="#D9D9D9"/>
<path d="M16.6909 0.86377C12.8 0.86377 9.63635 3.55468 9.63635 6.82741C9.63635 8.50013 10.4727 10.1365 11.9636 11.2638C11.6 12.1365 10.8727 12.7547 9.85453 13.082C9.59999 13.1547 9.59999 13.5183 9.85453 13.591C10.9454 14.0274 13.3091 14.0274 15.2364 12.682C15.7454 12.7547 16.2182 12.8274 16.7273 12.8274C20.6182 12.8274 23.8182 10.1365 23.8182 6.82741C23.7818 3.55468 20.5818 0.86377 16.6909 0.86377ZM16.6909 2.79104C17.6364 2.79104 18.4 3.55468 18.4 4.50013C18.4 5.44559 17.6364 6.20922 16.6909 6.20922C15.7454 6.20922 14.9818 5.44559 14.9818 4.50013C14.9818 3.55468 15.7454 2.79104 16.6909 2.79104ZM20 9.95468C20 10.1001 19.8909 10.2456 19.7091 10.2456H13.6727C13.5273 10.2456 13.3818 10.1365 13.3818 9.95468V8.71832C13.3818 7.3365 14.5091 6.20922 15.8909 6.20922C16 6.20922 16.1091 6.28195 16.1454 6.35468L16.6909 7.40922L17.2364 6.35468C17.2727 6.24559 17.3818 6.20922 17.4909 6.20922C18.8727 6.20922 20 7.3365 20 8.71832V9.95468Z" fill="#D9D9D9"/>
<path d="M17.6363 6.79094L16.9454 8.17276C16.8363 8.39094 16.5454 8.35458 16.4727 8.17276L15.7818 6.79094C14.7636 6.86367 14 7.70003 14 8.71822V9.66367H19.4909V8.71822C19.4545 7.7364 18.6545 6.86367 17.6363 6.79094ZM6.9818 8.82731L3.7818 5.62731C3.12725 4.97276 2.14543 4.9364 1.49089 5.44549L7.19998 11.1546C7.67271 10.4273 7.63634 9.44549 6.9818 8.82731ZM12.3636 18.3909L6.1818 12.2091L6.83634 11.5546L1.12725 5.84549C-0.0727491 8.06367 -0.290931 11.2273 1.89089 13.4091L10.6545 22.1728C12.9818 24.5 16.4363 24.5364 18.6909 23.4091L13.0182 17.7364L12.3636 18.3909ZM15.7091 17.5546C15.0909 16.9364 14.1091 16.8637 13.4182 17.3728L19.0909 23.0455C19.6 22.3546 19.5273 21.3728 18.9091 20.7546L15.7091 17.5546Z" fill="#D9D9D9"/>
</svg>
